<?xml version="1.0" standalone="no"?>
<!DOCTYPE svg PUBLIC "-//W3C//DTD SVG 20010904//EN"
 "http://www.w3.org/TR/2001/REC-SVG-20010904/DTD/svg10.dtd">
<svg version="1.0" xmlns="http://www.w3.org/2000/svg"
 width="700.000000pt" height="700.000000pt" viewBox="0 0 700.000000 700.000000"
 preserveAspectRatio="xMidYMid meet">
<metadata>
Created by potrace 1.11, written by Peter Selinger 2001-2013
</metadata>
<g transform="translate(0.000000,700.000000) scale(0.100000,-0.100000)"
fill="#000000" stroke="none">
<path d="M1098 6952 c-306 -200 -498 -507 -569 -911 -27 -147 -36 -453 -20
-613 70 -672 445 -1112 1056 -1238 322 -66 730 -40 1036 66 119 41 293 125
379 184 l60 41 0 624 0 625 -515 0 -515 0 0 -160 0 -160 323 -2 322 -3 3 -384
c2 -343 0 -386 -14 -402 -23 -25 -151 -77 -259 -104 -189 -48 -490 -57 -681
-20 -317 60 -530 215 -660 480 -102 207 -141 431 -131 758 13 471 148 775 425
958 269 177 736 215 1112 89 144 -48 349 -161 468 -257 l42 -35 -2 209 -3 208
-85 47 -85 48 -806 0 -806 0 -75 -48z"/>
<path d="M3923 6961 c-120 -95 -213 -237 -255 -388 -32 -116 -31 -346 0 -458
30 -104 75 -186 140 -257 143 -154 341 -241 723 -318 279 -56 380 -84 478
-132 184 -88 271 -224 271 -423 0 -250 -140 -414 -415 -486 -103 -27 -343 -37
-479 -20 -190 24 -404 92 -611 195 l-125 62 2 -201 3 -200 110 -37 c432 -144
856 -181 1219 -107 301 61 521 213 626 433 63 133 93 345 71 510 -33 245 -138
418 -334 546 -152 100 -298 149 -702 231 -331 67 -466 121 -537 215 -122 160
-95 435 54 569 193 174 583 213 972 99 79 -23 230 -81 339 -128 l37 -16 0 175
0 175 -769 0 -769 0 -49 -39z"/>
</g>
</svg>
